<svg xmlns="http://www.w3.org/2000/svg" width="1200" height="720" viewBox="0 0 1200 720">
  <style>
    text{font-family:Arial,sans-serif;fill:#17202a}.title{font-size:30px;font-weight:bold}.label{font-size:18px}.small{font-size:15px}.part{fill:#f8f9f9;stroke:#34495e;stroke-width:3}.wire{fill:none;stroke:#2471a3;stroke-width:4}.rail{fill:none;stroke:#c0392b;stroke-width:4}.gnd{fill:none;stroke:#17202a;stroke-width:4}.node{fill:#2471a3}
  </style>
  <rect width="1200" height="720" fill="white"/>
  <text x="600" y="48" text-anchor="middle" class="title">Voltmeter-Eingang 0–25 V DC für Arduino Nano</text>
  <text x="85" y="185" class="label">VIN+</text><circle cx="115" cy="215" r="9" class="node"/>
  <path d="M124 215 H205" class="wire"/>
  <rect x="205" y="190" width="150" height="50" rx="8" class="part"/><text x="280" y="222" text-anchor="middle" class="label">R1 56 kΩ</text>
  <path d="M355 215 H480" class="wire"/><circle cx="480" cy="215" r="8" class="node"/>
  <text x="480" y="178" text-anchor="middle" class="small">Teilerknoten</text>
  <path d="M480 215 V305" class="wire"/><rect x="430" y="305" width="100" height="85" rx="8" class="part"/><text x="480" y="340" text-anchor="middle" class="label">R2</text><text x="480" y="367" text-anchor="middle" class="label">10 kΩ</text><path d="M480 390 V565" class="gnd"/>
  <path d="M480 215 H610" class="wire"/><rect x="610" y="190" width="140" height="50" rx="8" class="part"/><text x="680" y="222" text-anchor="middle" class="label">R3 1 kΩ</text><path d="M750 215 H865" class="wire"/><circle cx="820" cy="215" r="8" class="node"/>
  <rect x="865" y="155" width="250" height="130" rx="15" class="part"/><text x="990" y="198" text-anchor="middle" class="title">Arduino Nano</text><text x="890" y="230" class="label">A0</text><text x="890" y="262" class="small">ADC (5 V)</text>
  <path d="M820 215 V320" class="wire"/><rect x="770" y="320" width="100" height="75" rx="8" class="part"/><text x="820" y="350" text-anchor="middle" class="label">C1</text><text x="820" y="377" text-anchor="middle" class="label">100 nF</text><path d="M820 395 V565" class="gnd"/>
  <path d="M820 215 V125 H905" class="rail"/><path d="M958 125 H1115" class="rail"/><text x="1118" y="131" class="label">5 V</text>
  <polygon points="905,110 940,125 905,140" fill="#f8f9f9" stroke="#34495e" stroke-width="3"/><line x1="948" y1="108" x2="948" y2="142" stroke="#34495e" stroke-width="4"/><path d="M940 125 H948 M948 125 H958" class="rail"/><text x="930" y="92" text-anchor="middle" class="small">D2 BAT43</text><text x="895" y="158" text-anchor="middle" class="small">A</text><text x="958" y="158" text-anchor="middle" class="small">K</text>
  <path d="M820 215 V270 H680 V417" class="wire"/><line x1="663" y1="417" x2="697" y2="417" stroke="#34495e" stroke-width="4"/><polygon points="680,425 665,450 695,450" fill="#f8f9f9" stroke="#34495e" stroke-width="3"/><path d="M680 450 V565" class="gnd"/><text x="610" y="447" text-anchor="middle" class="small">D1 BAT43</text>
  <path d="M85 565 H1115" class="gnd"/><text x="85" y="610" class="label">VIN−</text><circle cx="115" cy="565" r="9" fill="#17202a"/><text x="1010" y="595" class="label">Nano GND</text>
  <text x="600" y="665" text-anchor="middle" class="label">D1: Anode GND, Kathode A0 · D2: Anode A0, Kathode 5 V · VIN− zwingend an Nano-GND</text>
</svg>
